<?xml version="1.0" encoding="UTF-8" standalone="no"?>
<!DOCTYPE svg PUBLIC "-//W3C//DTD SVG 1.1//EN" "http://www.w3.org/Graphics/SVG/1.1/DTD/svg11.dtd">
<!-- Created with Vectornator (http://vectornator.io/) -->
<svg height="100%" stroke-miterlimit="10" style="fill-rule:nonzero;clip-rule:evenodd;stroke-linecap:round;stroke-linejoin:round;" version="1.1" viewBox="0 0 1000 1000" width="100%" xml:space="preserve" xmlns="http://www.w3.org/2000/svg" xmlns:vectornator="http://vectornator.io" xmlns:xlink="http://www.w3.org/1999/xlink">
<defs>
<linearGradient gradientTransform="matrix(1.534 0 0 1.534 -54.8818 -72.1692)" gradientUnits="userSpaceOnUse" id="LinearGradient" x1="224.951" x2="597.117" y1="325.358" y2="325.358">
<stop offset="0" stop-color="#fc7f7f"/>
<stop offset="0.995998" stop-color="#d71a1a"/>
</linearGradient>
<filter color-interpolation-filters="sRGB" filterUnits="userSpaceOnUse" height="418.95" id="Filter" width="1006.38" x="-3.1078" y="706.05">
<feGaussianBlur in="SourceGraphic" result="Blur" stdDeviation="50"/>
</filter>
<clipPath id="TextBounds">
<rect height="218.885" width="821.908" x="89.046" y="806.083"/>
</clipPath>
<filter color-interpolation-filters="sRGB" filterUnits="userSpaceOnUse" height="142.285" id="Filter_2" width="694.758" x="155.664" y="850.04">
<feDropShadow dx="-5.14249e-05" dy="14" flood-color="#000000" flood-opacity="0.690254" in="SourceGraphic" result="Shadow" stdDeviation="0"/>
</filter>
</defs>
<clipPath id="ArtboardFrame">
<rect height="1000" width="1000" x="0" y="0"/>
</clipPath>
<g clip-path="url(#ArtboardFrame)" id="Layer-2" vectornator:layerName="Layer 2">
<path d="M1.42109e-14-2.84217e-14L1000-2.84217e-14L1000 1000L1.42109e-14 1000L1.42109e-14-2.84217e-14Z" fill="#000000" fill-rule="nonzero" opacity="1" stroke="none"/>
</g>
<g id="Layer-1" vectornator:layerName="Layer 1">
<path d="M509.61 120.306C485.355 120.306 465.83 139.831 465.83 164.085L465.83 295.423C465.83 319.677 485.355 339.202 509.61 339.202L553.389 339.202L553.389 382.553C548.654 382.71 543.975 383.634 539.537 385.289L449.754 415.216L419.827 325.434C413.881 306.671 396.145 294.183 376.476 294.908C362.59 295.413 349.769 302.479 341.926 313.948C334.083 325.417 332.149 339.928 336.715 353.051L380.495 484.389C388.136 507.347 412.95 519.754 435.902 512.093L509.608 487.552L509.608 514.316C509.608 516.106 510.428 517.628 510.634 519.36L310.209 653.005C296.948 661.577 289.33 676.625 290.271 692.387C291.213 708.149 300.569 722.183 314.756 729.115C328.944 736.047 345.765 734.802 358.777 725.858L580.151 578.274L645.562 709.012C655.3 728.51 677.897 737.877 698.574 730.987L829.911 687.208C845.194 682.616 856.768 670.073 860.119 654.472C863.471 638.87 858.069 622.681 846.02 612.218C833.972 601.755 817.185 598.675 802.208 604.18L706.87 635.903L664.202 550.481C676.281 542.704 684.723 529.806 684.723 514.312L684.723 470.533L745.261 470.533L776.899 533.895C787.713 555.524 814.013 564.291 835.642 553.477C857.271 542.662 866.038 516.362 855.224 494.733L811.445 407.175C804.027 392.343 788.866 382.975 772.283 382.977L640.946 382.977L640.946 339.197L684.725 339.197C708.979 339.197 728.504 319.672 728.504 295.418L728.504 164.081C728.504 139.827 708.979 120.301 684.725 120.301L509.61 120.306ZM509.61 207.864L553.389 207.864L553.389 295.423L509.61 295.423L509.61 207.864Z" fill="url(#LinearGradient)" fill-rule="nonzero" opacity="1" stroke="none"/>
<path d="M138.903 382.923L459.399 246.127" fill="none" opacity="1" stroke="#fc7f7f" stroke-linecap="round" stroke-linejoin="round" stroke-width="12"/>
<path d="M459.399 246.127L138.903 109.331" fill="none" opacity="1" stroke="#fc7f7f" stroke-linecap="round" stroke-linejoin="round" stroke-width="12"/>
<path d="M459.399 246.127L138.903 246.127" fill="none" opacity="1" stroke="#fc7f7f" stroke-linecap="round" stroke-linejoin="round" stroke-width="12"/>
<path d="M138.903 79.2677L138.903 382.923" fill="none" opacity="1" stroke="#fc7f7f" stroke-linecap="round" stroke-linejoin="round" stroke-width="12"/>
</g>
<g clip-path="url(#ArtboardFrame)" id="Layer-4" vectornator:layerName="Layer 4">
<path d="M0.160124 966.21L1000 966.21L1000 1000L0.160124 1000L0.160124 966.21Z" fill="#540625" fill-rule="nonzero" opacity="1" stroke="none"/>
<path d="M0.160124 932.42L1000 932.42L1000 966.21L0.160124 966.21L0.160124 932.42Z" fill="#720e22" fill-rule="nonzero" opacity="1" stroke="none"/>
<path d="M0.160124 898.63L1000 898.63L1000 932.42L0.160124 932.42L0.160124 898.63Z" fill="#9a130e" fill-rule="nonzero" opacity="1" stroke="none"/>
<path d="M0.160124 864.84L1000 864.84L1000 898.63L0.160124 898.63L0.160124 864.84Z" fill="#a4360a" fill-rule="nonzero" opacity="1" stroke="none"/>
<path d="M0.160124 831.05L1000 831.05L1000 864.84L0.160124 864.84L0.160124 831.05Z" fill="#b37d15" fill-rule="nonzero" opacity="1" stroke="none"/>
<path d="M121.892 915.525C121.892 868.871 291.213 831.05 500.08 831.05C708.947 831.05 878.268 868.871 878.268 915.525C878.268 962.179 708.947 1000 500.08 1000C291.213 1000 121.892 962.179 121.892 915.525Z" fill="#ffffff" fill-rule="nonzero" filter="url(#Filter)" opacity="0" stroke="none" vectornator:blendMode="overlay"/>
</g>
<g id="Capa-1" vectornator:layerName="Capa 1">
<g fill="#ffffff" filter="url(#Filter_2)" stroke="none" vectornator:shadowAngle="1.5708" vectornator:shadowColor="#000000" vectornator:shadowOffset="14" vectornator:shadowOpacity="0.690254" vectornator:shadowRadius="0">
<path clip-path="url(#TextBounds)" d="M155.664 976.083L155.664 852.442L174.242 852.442C182.517 852.442 189.11 853.083 194.021 854.364C198.986 855.645 203.177 857.807 206.594 860.85C210.064 864 212.813 867.924 214.842 872.622C216.924 877.373 217.965 882.178 217.965 887.036C217.965 895.898 214.575 903.399 207.795 909.538C214.361 911.78 219.54 915.704 223.33 921.309C227.174 926.861 229.096 933.321 229.096 940.688C229.096 950.351 225.679 958.519 218.846 965.192C214.735 969.303 210.117 972.159 204.992 973.761C199.387 975.309 192.367 976.083 183.932 976.083L155.664 976.083ZM174.322 905.534L180.168 905.534C187.108 905.534 192.193 903.999 195.423 900.929C198.653 897.86 200.268 893.335 200.268 887.356C200.268 881.537 198.613 877.12 195.303 874.103C191.993 871.087 187.188 869.579 180.889 869.579L174.322 869.579L174.322 905.534ZM174.322 958.546L185.854 958.546C194.288 958.546 200.481 956.891 204.432 953.581C208.596 950.004 210.678 945.466 210.678 939.968C210.678 934.629 208.676 930.145 204.672 926.514C200.775 922.938 193.808 921.149 183.771 921.149L174.322 921.149L174.322 958.546Z"/>
<path clip-path="url(#TextBounds)" d="M306.691 898.087L324.789 898.087L324.789 976.083L306.691 976.083L306.691 967.915C299.271 974.855 291.29 978.325 282.748 978.325C271.964 978.325 263.049 974.428 256.002 966.634C249.008 958.679 245.512 948.749 245.512 936.845C245.512 925.153 249.008 915.41 256.002 907.616C262.995 899.822 271.751 895.925 282.268 895.925C291.343 895.925 299.484 899.662 306.691 907.136L306.691 898.087ZM263.93 936.845C263.93 944.318 265.932 950.404 269.936 955.102C274.046 959.854 279.225 962.229 285.471 962.229C292.144 962.229 297.536 959.934 301.646 955.343C305.757 950.591 307.812 944.559 307.812 937.245C307.812 929.931 305.757 923.899 301.646 919.147C297.536 914.503 292.197 912.18 285.631 912.18C279.438 912.18 274.26 914.529 270.096 919.227C265.985 923.979 263.93 929.851 263.93 936.845Z"/>
<path clip-path="url(#TextBounds)" d="M392.855 911.38L377.961 919.307C375.612 914.503 372.702 912.1 369.232 912.1C367.577 912.1 366.163 912.648 364.988 913.742C363.814 914.836 363.227 916.238 363.227 917.946C363.227 920.936 366.697 923.899 373.637 926.835C383.193 930.945 389.626 934.736 392.936 938.206C396.245 941.676 397.9 946.347 397.9 952.22C397.9 959.747 395.124 966.046 389.572 971.118C384.18 975.923 377.667 978.325 370.033 978.325C356.954 978.325 347.691 971.945 342.246 959.186L357.621 952.059C359.757 955.796 361.385 958.172 362.506 959.186C364.695 961.215 367.311 962.229 370.354 962.229C376.439 962.229 379.482 959.453 379.482 953.901C379.482 950.698 377.133 947.708 372.436 944.932C370.62 944.025 368.805 943.144 366.99 942.29C365.175 941.436 363.333 940.555 361.465 939.647C356.233 937.085 352.549 934.522 350.414 931.96C347.691 928.703 346.33 924.512 346.33 919.387C346.33 912.608 348.652 907.002 353.297 902.571C358.048 898.14 363.814 895.925 370.594 895.925C380.577 895.925 387.997 901.076 392.855 911.38Z"/>
<path clip-path="url(#TextBounds)" d="M432.094 898.087L432.094 976.083L414.076 976.083L414.076 898.087L432.094 898.087ZM411.354 865.655C411.354 862.505 412.501 859.783 414.797 857.487C417.092 855.192 419.842 854.044 423.045 854.044C426.301 854.044 429.077 855.192 431.373 857.487C433.669 859.729 434.816 862.479 434.816 865.735C434.816 868.992 433.669 871.768 431.373 874.063C429.131 876.359 426.382 877.507 423.125 877.507C419.868 877.507 417.092 876.359 414.797 874.063C412.501 871.768 411.354 868.965 411.354 865.655Z"/>
<path clip-path="url(#TextBounds)" d="M515.615 901.45L515.615 925.393C511.505 920.375 507.821 916.932 504.564 915.063C501.361 913.141 497.598 912.18 493.273 912.18C486.493 912.18 480.861 914.556 476.377 919.307C471.893 924.059 469.65 930.011 469.65 937.165C469.65 944.479 471.812 950.484 476.137 955.182C480.514 959.88 486.093 962.229 492.873 962.229C497.197 962.229 501.014 961.295 504.324 959.427C507.527 957.611 511.291 954.088 515.615 948.856L515.615 972.639C508.301 976.43 500.988 978.325 493.674 978.325C481.609 978.325 471.519 974.428 463.404 966.634C455.29 958.786 451.232 949.043 451.232 937.405C451.232 925.767 455.343 915.944 463.564 907.936C471.786 899.928 481.876 895.925 493.834 895.925C501.521 895.925 508.782 897.766 515.615 901.45Z"/>
<path clip-path="url(#TextBounds)" d="M648.865 869.979L605.783 869.979L605.783 899.688L647.344 899.688L647.344 917.225L605.783 917.225L605.783 976.083L587.125 976.083L587.125 852.442L648.865 852.442L648.865 869.979Z"/>
<path clip-path="url(#TextBounds)" d="M689.145 925.874L689.145 976.083L670.486 976.083L670.486 852.442L691.627 852.442C701.984 852.442 709.805 853.163 715.09 854.604C720.428 856.046 725.126 858.768 729.184 862.772C736.284 869.712 739.834 878.468 739.834 889.038C739.834 900.356 736.044 909.324 728.463 915.944C720.882 922.564 710.659 925.874 697.793 925.874L689.145 925.874ZM689.145 908.577L696.111 908.577C713.248 908.577 721.816 901.984 721.816 888.798C721.816 876.039 712.981 869.659 695.311 869.659L689.145 869.659L689.145 908.577Z"/>
<path clip-path="url(#TextBounds)" d="M850.422 859.089L850.422 881.19C839.638 872.168 828.48 867.657 816.949 867.657C804.243 867.657 793.54 872.221 784.838 881.35C776.083 890.426 771.705 901.53 771.705 914.663C771.705 927.636 776.083 938.58 784.838 947.495C793.593 956.41 804.324 960.868 817.029 960.868C823.596 960.868 829.174 959.8 833.766 957.665C836.328 956.597 838.984 955.156 841.733 953.341C844.483 951.526 847.379 949.337 850.422 946.774L850.422 969.276C839.745 975.309 828.534 978.325 816.789 978.325C799.118 978.325 784.037 972.159 771.545 959.827C759.106 947.388 752.887 932.387 752.887 914.823C752.887 899.074 758.092 885.034 768.502 872.702C781.314 857.594 797.891 850.04 818.23 850.04C829.335 850.04 840.065 853.056 850.422 859.089Z"/>
</g>
</g>
</svg>
